# xmcd CD database file
#
# Track frame offsets:
#	150
#	14700
#	30415
#	42080
#	55290
#	69773
#	82393
#	93273
#	107101
#	120609
#	135429
#	146489
#	161732
#	176142
#	188544
#	206107
#	216911
#	230758
#	256031
#	267338
#	278113
#
# Disc length: 3860 seconds
#
# Revision: 0
# Processed by: cddbd v1.5.2PL0 Copyright (c) Steve Scherf et al.
# Submitted via: ACXtractor (MTCDDB.DLL V2003.07.15)
#
DISCID=320f1215
DTITLE=Jim Haynes and Greg champion - Its Nothing Serious
DYEAR=1997
DGENRE=Country
TTITLE0=Too Much Pumkin in the Scones
TTITLE1=Homebush Hero
TTITLE2=The Renovators Dream
TTITLE3=The Nicest Way 
TTITLE4=It's Carowindra
TTITLE5=Goin Back to My Wife
TTITLE6=It's Nothing Serious
TTITLE7=Since Cheryl went Feral
TTITLE8=I Made a Hundred in the Back Yard at Mum's
TTITLE9=May Your Fridge be Full of Coldies
TTITLE10=Gotta do the Gardening
TTITLE11=I Like Rock and Roll Country
TTITLE12=Wagga Wagga Wedding in July
TTITLE13=Half a Dozen Stubbies in the Fridge
TTITLE14=The Old Holden Waltz
TTITLE15=Searching for the Outback
TTITLE16=I'll Love You
TTITLE17=The Chook from Snowy River
TTITLE18=Weelabarabak for Me
TTITLE19=I'll Have Chips
TTITLE20=I Love Line Dancing
EXTD=ID3G:   2 YEAR: 1997
EXTT0=
EXTT1=
EXTT2=
EXTT3=
EXTT4=
EXTT5=
EXTT6=
EXTT7=
EXTT8=
EXTT9=
EXTT10=
EXTT11=
EXTT12=
EXTT13=
EXTT14=
EXTT15=
EXTT16=
EXTT17=
EXTT18=
EXTT19=
EXTT20=
PLAYORDER=
